<?xml version="1.0" standalone="no"?>
<!DOCTYPE svg PUBLIC "-//W3C//DTD SVG 20010904//EN"
 "http://www.w3.org/TR/2001/REC-SVG-20010904/DTD/svg10.dtd">
<svg version="1.0" xmlns="http://www.w3.org/2000/svg"
 width="744.000000pt" height="1052.000000pt" viewBox="0 0 744.000000 1052.000000"
 preserveAspectRatio="xMidYMid meet">

<g transform="translate(0.000000,1052.000000) scale(0.100000,-0.100000)"
fill="#000000" stroke="none">
<path d="M7050 7625 c0 -17 -10 -40 -26 -56 l-25 -27 29 -10 c22 -7 32 -19 37
-41 l7 -31 27 29 c20 22 34 28 50 24 25 -6 26 0 5 32 -11 17 -14 34 -9 56 7
31 7 31 -25 24 -23 -5 -36 -2 -51 11 -18 17 -19 16 -19 -11z"/>
<path d="M6857 7135 c-14 -29 -22 -35 -47 -35 -35 0 -38 -10 -9 -36 16 -14 20
-28 17 -56 -4 -44 -6 -42 31 -23 25 12 31 12 47 0 29 -22 34 -18 34 23 0 26 7
45 20 57 23 21 18 35 -15 35 -18 0 -29 10 -43 35 l-18 36 -17 -36z"/>
<path d="M7041 6595 c-19 -51 -27 -60 -70 -74 l-42 -13 35 -33 c34 -31 36 -35
30 -79 -7 -51 -1 -55 36 -26 30 24 42 24 81 4 17 -8 32 -14 34 -12 2 2 -1 23
-6 47 -9 39 -7 47 17 78 14 19 24 36 22 38 -2 3 -22 8 -44 13 -31 6 -43 16
-61 47 l-22 39 -10 -29z"/>
<path d="M6687 6228 c-24 -17 -32 -19 -53 -9 -38 17 -43 14 -33 -24 9 -30 7
-41 -11 -70 l-22 -35 36 0 c28 0 38 -6 53 -30 22 -38 28 -38 39 2 7 23 18 36
39 42 42 14 41 13 12 44 -16 17 -27 41 -29 64 l-3 37 -28 -21z"/>
<path d="M6290 5926 c-10 -13 -22 -16 -47 -11 l-33 6 6 -39 c4 -25 2 -42 -5
-46 -19 -12 -13 -39 8 -33 22 5 32 0 53 -31 l16 -24 7 32 c5 23 15 36 36 43
l29 11 -21 22 c-12 13 -24 37 -28 55 -6 29 -8 30 -21 15z"/>
<path d="M420 5856 c-24 -72 -33 -80 -110 -97 l-52 -11 52 -53 53 -54 -7 -76
-7 -76 60 41 61 40 61 -31 62 -31 -6 39 c-21 127 -22 114 23 171 23 29 41 54
39 56 -2 2 -33 7 -69 12 l-65 9 -30 57 c-17 31 -33 60 -37 63 -3 3 -16 -23
-28 -59z"/>
<path d="M7020 5648 c0 -59 -8 -75 -59 -112 l-34 -25 29 -11 c66 -22 78 -34
95 -90 l16 -54 28 44 c35 56 40 60 93 60 23 0 42 2 42 6 0 3 -11 22 -25 42
-29 43 -30 55 -10 112 8 24 14 44 12 46 -1 2 -24 -5 -50 -14 -32 -12 -51 -14
-61 -7 -8 6 -28 20 -45 33 l-31 23 0 -53z"/>
<path d="M5589 5604 c-20 -21 -29 -24 -61 -19 -43 8 -44 7 -22 -38 15 -31 15
-36 0 -65 -22 -42 -22 -42 23 -42 33 0 44 -6 64 -32 l25 -32 7 48 c6 41 12 49
43 65 l36 18 -30 19 c-37 24 -44 33 -44 66 0 38 -13 42 -41 12z"/>
<path d="M6227 5319 c-10 -6 -31 -8 -46 -4 -26 6 -28 4 -23 -20 3 -16 -2 -33
-12 -44 -18 -20 -12 -31 16 -31 10 0 24 -11 30 -25 l11 -25 18 30 c10 16 26
30 34 30 20 0 19 14 -1 31 -10 8 -14 23 -12 41 3 15 4 28 4 28 -1 0 -9 -5 -19
-11z"/>
<path d="M5024 5223 c-16 -94 -17 -97 -72 -125 -29 -15 -52 -30 -51 -35 1 -4
23 -22 48 -38 25 -17 47 -37 48 -45 1 -8 5 -42 8 -74 l7 -60 45 47 c49 52 56
53 126 32 26 -8 47 -12 47 -9 0 2 -11 32 -25 65 l-24 61 29 59 c17 32 30 60
30 63 0 2 -28 1 -63 -1 l-63 -5 -38 51 c-21 28 -39 51 -41 51 -2 0 -7 -17 -11
-37z"/>
<path d="M1703 5113 c-7 -29 -18 -43 -46 -59 l-37 -21 30 -26 c24 -22 30 -35
30 -68 l0 -41 33 24 c30 24 34 24 71 12 35 -13 37 -12 31 4 -18 46 -17 72 5
106 l22 36 -41 0 c-35 0 -43 5 -64 36 l-25 35 -9 -38z"/>
<path d="M6533 5108 c4 -15 0 -33 -9 -46 -14 -20 -14 -22 5 -22 11 0 26 -9 34
-20 14 -20 14 -20 31 5 9 14 24 25 33 25 15 0 15 1 0 18 -10 10 -17 28 -17 40
0 24 -7 27 -29 13 -9 -6 -22 -6 -34 1 -18 9 -19 7 -14 -14z"/>
<path d="M897 5040 c-13 -19 -22 -22 -52 -17 -32 5 -36 4 -30 -11 16 -38 17
-63 1 -87 l-16 -25 34 0 c25 0 40 -7 55 -26 l21 -27 6 32 c4 19 17 39 33 49
14 9 28 17 30 19 2 1 -8 12 -22 24 -15 11 -27 30 -27 42 0 12 -4 28 -9 36 -7
10 -12 8 -24 -9z"/>
<path d="M2425 4928 c-6 -13 -20 -24 -32 -26 -26 -4 -29 -12 -11 -30 6 -6 11
-25 10 -42 -1 -32 4 -35 28 -20 10 6 22 4 37 -6 22 -14 23 -13 23 17 0 18 7
40 16 50 15 17 14 19 -10 25 -14 3 -26 9 -26 13 0 4 -6 15 -13 24 -11 16 -13
16 -22 -5z"/>
<path d="M4298 4913 c-37 -25 -38 -25 -78 -9 -22 9 -42 16 -44 16 -2 0 1 -22
7 -50 9 -47 8 -51 -23 -90 l-32 -40 35 0 c52 0 66 -8 89 -54 l22 -41 20 48
c18 43 25 49 63 59 l43 10 -35 39 c-32 36 -34 41 -28 89 3 27 4 50 2 49 -2 0
-21 -12 -41 -26z"/>
<path d="M5782 4890 c-7 -11 -19 -20 -27 -20 -17 0 -20 -16 -5 -25 6 -3 10
-16 10 -29 0 -18 5 -22 34 -22 27 0 35 5 39 21 2 11 8 28 12 38 5 12 3 17 -8
17 -8 0 -21 9 -28 20 l-14 21 -13 -21z"/>
<path d="M1564 4821 c-37 -67 -57 -81 -119 -81 l-57 0 36 -50 c40 -56 42 -69
21 -130 -8 -23 -15 -46 -15 -51 0 -5 23 0 50 11 28 11 54 20 59 20 4 0 29 -16
55 -35 l46 -36 0 65 0 64 51 45 50 44 -58 19 -58 19 -21 65 -21 65 -19 -34z"/>
<path d="M365 4788 c-39 -46 -48 -50 -100 -37 -25 6 -48 9 -51 6 -3 -3 4 -23
15 -46 27 -52 26 -71 -5 -132 l-25 -51 60 7 60 7 40 -43 c44 -48 41 -51 56 43
5 32 13 41 55 64 28 15 50 30 50 34 0 4 -13 13 -29 20 -51 21 -69 46 -76 105
-4 30 -11 55 -15 55 -5 0 -20 -15 -35 -32z"/>
<path d="M3024 4723 c-21 -74 -26 -79 -90 -100 -30 -9 -54 -19 -54 -22 1 -3
23 -23 50 -44 l50 -38 0 -76 c0 -85 -6 -83 74 -19 l36 29 57 -22 c31 -12 58
-19 61 -17 2 3 -3 26 -12 52 -22 67 -20 88 14 136 43 59 40 70 -17 68 -75 -4
-76 -3 -111 55 -18 30 -35 55 -37 55 -3 0 -12 -26 -21 -57z"/>
<path d="M1957 4686 c-24 -31 -34 -36 -68 -36 -43 0 -46 -5 -23 -38 16 -23 15
-58 -1 -108 -6 -21 -5 -21 34 -11 38 10 43 9 69 -16 15 -15 31 -27 35 -27 4 0
7 20 7 45 0 40 4 47 35 67 19 13 35 26 35 30 0 4 -16 12 -35 19 -29 11 -37 20
-46 54 -5 22 -11 44 -12 49 -2 4 -15 -8 -30 -28z"/>
<path d="M3756 4701 c-3 -5 -14 -7 -24 -5 -14 4 -17 -2 -19 -36 -1 -32 2 -40
17 -40 10 0 21 -8 25 -17 6 -16 9 -14 21 10 8 15 22 27 31 27 14 0 13 4 -5 23
-12 13 -22 29 -22 35 0 14 -16 16 -24 3z"/>
<path d="M6590 4587 c0 -10 -9 -26 -21 -38 -18 -18 -19 -23 -6 -37 8 -9 17
-26 21 -36 5 -15 9 -17 18 -8 7 7 23 12 36 12 21 0 23 3 18 25 -4 14 -2 34 4
45 9 17 8 20 -11 20 -12 0 -31 7 -41 17 -17 15 -18 15 -18 0z"/>
<path d="M4827 4434 l-37 -24 -41 21 c-23 11 -42 19 -44 17 -2 -2 1 -25 7 -51
9 -45 8 -49 -21 -86 -17 -21 -31 -42 -31 -45 0 -3 15 -6 33 -6 43 0 73 -22 87
-65 6 -19 15 -35 19 -35 4 0 13 17 20 38 19 52 28 61 73 68 21 4 40 10 43 14
2 4 -12 22 -32 40 -34 32 -35 35 -30 86 3 30 3 54 -1 53 -4 0 -24 -11 -45 -25z"/>
<path d="M6045 4345 c-10 -67 -14 -73 -70 -99 l-49 -22 37 -23 c59 -36 67 -48
67 -102 0 -27 3 -49 7 -49 4 0 24 16 44 36 36 35 36 35 83 23 26 -6 49 -9 52
-7 2 3 -4 27 -15 54 l-19 49 24 45 c13 25 23 49 24 54 0 5 -21 6 -47 2 -48 -7
-48 -6 -90 41 l-41 47 -7 -49z"/>
<path d="M3246 4247 c-3 -15 -8 -38 -11 -52 -4 -16 -19 -32 -45 -45 -22 -11
-40 -23 -40 -25 0 -3 18 -16 40 -30 33 -21 40 -31 41 -58 0 -17 4 -40 7 -50 7
-15 11 -14 41 16 31 33 35 34 73 25 22 -5 43 -7 45 -4 2 2 -3 18 -11 35 -20
37 -20 68 -1 101 24 41 19 48 -28 43 -41 -5 -46 -3 -75 32 l-31 38 -5 -26z"/>
<path d="M5370 4190 c0 -9 -7 -25 -15 -37 -13 -19 -13 -21 6 -26 11 -3 23 -15
26 -27 l6 -21 14 21 c8 11 21 20 30 20 11 0 14 6 9 23 -3 12 -6 31 -6 42 0 16
-7 20 -35 20 -25 0 -35 -4 -35 -15z"/>
<path d="M2927 3989 l-48 -30 -46 26 c-25 14 -47 25 -50 25 -2 0 -1 -29 3 -64
6 -62 6 -64 -30 -103 -39 -44 -35 -53 23 -53 37 0 55 -16 83 -74 l24 -48 19
48 c24 66 30 71 78 79 23 4 46 9 50 12 4 3 -10 24 -32 48 -34 37 -40 50 -36
75 3 16 7 44 10 60 2 17 3 30 2 30 -1 0 -24 -14 -50 -31z"/>
<path d="M816 3995 c-13 -10 -24 -11 -37 -5 -27 15 -31 12 -24 -19 4 -20 1
-38 -10 -55 -17 -26 -17 -26 9 -26 16 0 31 -9 42 -25 l17 -26 18 30 c10 16 27
32 39 36 l22 7 -21 22 c-12 12 -21 34 -21 49 0 30 -7 33 -34 12z"/>
<path d="M1375 3974 c-3 -21 -8 -48 -10 -59 -3 -11 -25 -32 -51 -46 l-47 -26
47 -28 c27 -16 48 -36 50 -48 3 -12 8 -40 11 -62 l7 -39 35 42 36 43 53 -7 54
-6 -20 47 c-25 58 -25 66 0 115 11 22 20 42 20 45 0 6 -41 0 -82 -11 -12 -4
-31 9 -57 37 l-39 43 -7 -40z"/>
<path d="M4260 3959 l-45 -48 -44 10 c-70 16 -74 12 -44 -53 l26 -58 -27 -61
c-14 -33 -26 -62 -26 -63 0 -2 27 2 60 9 l61 13 44 -51 44 -50 5 37 c3 20 8
52 11 71 5 30 13 39 55 60 28 14 50 29 50 34 0 4 -22 20 -49 34 -52 29 -60 41
-62 90 -1 18 -4 42 -7 53 -7 20 -10 18 -52 -27z"/>
<path d="M5674 3909 c-29 -28 -34 -30 -68 -21 -41 12 -43 7 -19 -43 16 -33 16
-37 0 -70 -9 -20 -17 -38 -17 -40 0 -3 17 -2 38 1 34 5 41 3 65 -25 32 -38 37
-39 38 -3 1 43 13 63 49 82 l34 18 -34 21 c-28 16 -37 30 -45 66 l-10 46 -31
-32z"/>
<path d="M6337 3880 c-24 -19 -32 -21 -53 -11 -38 17 -43 14 -33 -24 9 -30 7
-41 -11 -70 l-22 -35 37 0 c29 0 39 -5 53 -30 21 -38 27 -38 38 1 9 31 20 42
58 54 18 5 18 7 -7 33 -16 17 -27 41 -29 65 l-3 39 -28 -22z"/>
<path d="M1996 3755 c-9 -14 -26 -25 -38 -25 -20 0 -20 -1 -5 -18 10 -10 17
-33 17 -51 0 -29 2 -31 20 -21 14 7 26 8 39 0 29 -15 34 -13 27 13 -3 14 1 32
9 43 20 26 19 34 -5 34 -13 0 -24 10 -30 25 -5 14 -11 25 -14 25 -2 0 -11 -11
-20 -25z"/>
<path d="M4470 3405 c0 -40 -5 -50 -36 -79 -36 -33 -36 -34 -16 -45 11 -6 28
-11 37 -11 14 0 26 -21 49 -84 5 -16 10 -13 36 22 25 35 35 41 70 44 l40 3
-25 38 c-23 34 -25 41 -15 78 13 49 9 56 -25 41 -37 -17 -50 -15 -84 14 l-31
26 0 -47z"/>
<path d="M2640 3347 l0 -76 -55 -43 -55 -43 57 -21 c63 -23 74 -37 96 -119
l13 -50 38 58 39 57 68 0 69 0 -35 55 c-40 62 -41 69 -18 141 9 30 14 56 11
59 -3 3 -31 -4 -63 -16 l-57 -21 -31 29 c-18 16 -42 37 -54 47 l-23 19 0 -76z"/>
<path d="M5270 3380 c0 -9 -7 -26 -16 -38 -14 -21 -14 -23 10 -32 14 -5 26
-16 26 -25 0 -21 13 -19 28 5 7 11 21 20 32 20 20 0 20 1 4 25 -9 14 -14 33
-12 43 4 15 -1 18 -33 17 -28 0 -39 -4 -39 -15z"/>
<path d="M1170 3296 c0 -9 -12 -28 -27 -42 l-27 -25 22 -15 c15 -10 22 -26 22
-46 l0 -31 23 20 c15 15 30 20 50 16 27 -5 27 -5 16 21 -9 20 -9 32 -1 51 16
35 15 37 -9 30 -14 -5 -28 0 -45 16 -21 19 -24 20 -24 5z"/>
<path d="M3562 3240 l-32 -50 -60 0 -60 0 36 -54 36 -54 -18 -56 c-10 -31 -15
-59 -11 -62 3 -3 28 2 56 11 l51 17 43 -36 c24 -20 47 -36 51 -36 3 0 6 29 6
64 0 65 0 65 45 102 25 20 42 40 38 44 -4 4 -29 15 -55 25 -46 17 -48 20 -64
76 -9 33 -19 59 -23 59 -3 0 -21 -23 -39 -50z"/>
<path d="M560 3251 c0 -16 -5 -33 -11 -37 -6 -3 2 -14 20 -25 30 -18 31 -18
56 5 16 15 22 27 15 31 -5 3 -10 17 -10 31 0 24 -14 32 -25 14 -4 -7 -13 -7
-26 0 -17 10 -19 7 -19 -19z"/>
<path d="M1750 3101 c0 -40 -14 -62 -51 -81 -27 -15 -24 -24 16 -43 23 -11 36
-25 41 -44 15 -69 14 -68 46 -28 28 34 33 36 69 30 22 -4 39 -4 39 0 0 3 -9
24 -20 45 -19 37 -19 42 -5 76 8 20 15 38 15 41 0 2 -19 1 -43 -2 -37 -6 -45
-3 -66 19 -33 35 -41 33 -41 -13z"/>
</g>
</svg>
